<svg width="434" height="245" viewBox="0 0 434 245" fill="none" xmlns="http://www.w3.org/2000/svg">
<path d="M180.634 29.5439C190.57 21.7342 203.031 17.0677 216.555 17.0677C230.076 17.0677 242.537 21.7342 252.473 29.5449L264.467 17.3967C251.42 6.53105 234.728 0.000665665 216.553 1.52588e-05C198.382 0.000665665 181.688 6.53105 168.639 17.3977L180.634 29.5439Z" fill="#227DAC"/>
<path d="M274.926 27.9848L262.928 40.133C270.642 50.1936 275.252 62.8113 275.252 76.5031C275.252 90.1968 270.644 102.813 262.928 112.874L274.926 125.021C285.657 111.808 292.107 94.9053 292.107 76.5031C292.107 58.1025 285.655 41.1986 274.926 27.9848Z" fill="#227DAC"/>
<path d="M170.176 112.875C162.464 102.814 157.856 90.1976 157.856 76.5029C157.856 62.8111 162.464 50.1935 170.177 40.1321L158.18 27.9856C147.452 41.1995 141.001 58.1023 141 76.5029C141 94.9055 147.451 111.809 158.181 125.022L170.176 112.875Z" fill="#227DAC"/>
<path d="M264.467 135.611L252.473 123.462C242.537 131.274 230.078 135.94 216.555 135.941C203.03 135.94 190.57 131.274 180.633 123.462L168.638 135.611C173.924 140.012 179.653 143.576 185.652 146.307V175.504L207.093 152.41C227.118 154.97 247.942 149.371 264.467 135.611Z" fill="#227DAC"/>
<path d="M223.948 42.2549C237.814 45.2062 248.758 56.2871 251.673 70.3297H264.225C261.026 49.3803 244.638 32.7823 223.948 29.5456V42.2549Z" fill="#227DAC"/>
<path d="M181.435 70.3298C184.349 56.2895 195.294 45.207 209.158 42.2551V29.5467C188.469 32.7841 172.079 49.3801 168.883 70.3298H181.435Z" fill="#227DAC"/>
<path d="M209.158 113.378C195.294 110.424 184.351 99.3456 181.435 85.3047H168.883C172.081 106.253 188.47 122.85 209.158 126.085V113.378Z" fill="#227DAC"/>
<path d="M251.673 85.3047C248.758 99.344 237.814 110.424 223.948 113.378V126.088C244.639 122.85 261.026 106.254 264.225 85.3047H251.673Z" fill="#227DAC"/>
<path d="M8.25 209.875L27.8125 217.781V223.906L2.25 212.062V207.5L27.8125 195.688V201.812L8.25 209.875ZM42.7188 200.281C45.2812 197.135 48.6146 195.562 52.7188 195.562C59.8646 195.562 63.4688 199.594 63.5312 207.656V230H57.75V207.625C57.7292 205.188 57.1667 203.385 56.0625 202.219C54.9792 201.052 53.2812 200.469 50.9688 200.469C49.0938 200.469 47.4479 200.969 46.0312 201.969C44.6146 202.969 43.5104 204.281 42.7188 205.906V230H36.9375V182H42.7188V200.281ZM93.0625 230C92.7292 229.333 92.4583 228.146 92.25 226.438C89.5625 229.229 86.3542 230.625 82.625 230.625C79.2917 230.625 76.5521 229.688 74.4062 227.812C72.2812 225.917 71.2188 223.521 71.2188 220.625C71.2188 217.104 72.5521 214.375 75.2188 212.438C77.9062 210.479 81.6771 209.5 86.5312 209.5H92.1562V206.844C92.1562 204.823 91.5521 203.219 90.3438 202.031C89.1354 200.823 87.3542 200.219 85 200.219C82.9375 200.219 81.2083 200.74 79.8125 201.781C78.4167 202.823 77.7188 204.083 77.7188 205.562H71.9062C71.9062 203.875 72.5 202.25 73.6875 200.688C74.8958 199.104 76.5208 197.854 78.5625 196.938C80.625 196.021 82.8854 195.562 85.3438 195.562C89.2396 195.562 92.2917 196.542 94.5 198.5C96.7083 200.438 97.8542 203.115 97.9375 206.531V222.094C97.9375 225.198 98.3333 227.667 99.125 229.5V230H93.0625ZM83.4688 225.594C85.2812 225.594 87 225.125 88.625 224.188C90.25 223.25 91.4271 222.031 92.1562 220.531V213.594H87.625C80.5417 213.594 77 215.667 77 219.812C77 221.625 77.6042 223.042 78.8125 224.062C80.0208 225.083 81.5729 225.594 83.4688 225.594ZM135.562 213.469C135.562 218.615 134.385 222.76 132.031 225.906C129.677 229.052 126.49 230.625 122.469 230.625C118.365 230.625 115.135 229.323 112.781 226.719V243H107V196.188H112.281L112.562 199.938C114.917 197.021 118.188 195.562 122.375 195.562C126.438 195.562 129.646 197.094 132 200.156C134.375 203.219 135.562 207.479 135.562 212.938V213.469ZM129.781 212.812C129.781 209 128.969 205.99 127.344 203.781C125.719 201.573 123.49 200.469 120.656 200.469C117.156 200.469 114.531 202.021 112.781 205.125V221.281C114.51 224.365 117.156 225.906 120.719 225.906C123.49 225.906 125.688 224.812 127.312 222.625C128.958 220.417 129.781 217.146 129.781 212.812ZM171.5 213.469C171.5 218.615 170.323 222.76 167.969 225.906C165.615 229.052 162.427 230.625 158.406 230.625C154.302 230.625 151.073 229.323 148.719 226.719V243H142.938V196.188H148.219L148.5 199.938C150.854 197.021 154.125 195.562 158.312 195.562C162.375 195.562 165.583 197.094 167.938 200.156C170.312 203.219 171.5 207.479 171.5 212.938V213.469ZM165.719 212.812C165.719 209 164.906 205.99 163.281 203.781C161.656 201.573 159.427 200.469 156.594 200.469C153.094 200.469 150.469 202.021 148.719 205.125V221.281C150.448 224.365 153.094 225.906 156.656 225.906C159.427 225.906 161.625 224.812 163.25 222.625C164.896 220.417 165.719 217.146 165.719 212.812ZM189.562 221.531L197.438 196.188H203.625L190.031 235.219C187.927 240.844 184.583 243.656 180 243.656L178.906 243.562L176.75 243.156V238.469L178.312 238.594C180.271 238.594 181.792 238.198 182.875 237.406C183.979 236.615 184.885 235.167 185.594 233.062L186.875 229.625L174.812 196.188H181.125L189.562 221.531ZM243.188 215.562C242.625 220.375 240.844 224.094 237.844 226.719C234.865 229.323 230.896 230.625 225.938 230.625C220.562 230.625 216.25 228.698 213 224.844C209.771 220.99 208.156 215.833 208.156 209.375V205C208.156 200.771 208.906 197.052 210.406 193.844C211.927 190.635 214.073 188.177 216.844 186.469C219.615 184.74 222.823 183.875 226.469 183.875C231.302 183.875 235.177 185.229 238.094 187.938C241.01 190.625 242.708 194.354 243.188 199.125H237.156C236.635 195.5 235.5 192.875 233.75 191.25C232.021 189.625 229.594 188.812 226.469 188.812C222.635 188.812 219.625 190.229 217.438 193.062C215.271 195.896 214.188 199.927 214.188 205.156V209.562C214.188 214.5 215.219 218.427 217.281 221.344C219.344 224.26 222.229 225.719 225.938 225.719C229.271 225.719 231.823 224.969 233.594 223.469C235.385 221.948 236.573 219.312 237.156 215.562H243.188ZM248.969 212.781C248.969 209.469 249.615 206.49 250.906 203.844C252.219 201.198 254.031 199.156 256.344 197.719C258.677 196.281 261.333 195.562 264.312 195.562C268.917 195.562 272.635 197.156 275.469 200.344C278.323 203.531 279.75 207.771 279.75 213.062V213.469C279.75 216.76 279.115 219.719 277.844 222.344C276.594 224.948 274.792 226.979 272.438 228.438C270.104 229.896 267.417 230.625 264.375 230.625C259.792 230.625 256.073 229.031 253.219 225.844C250.385 222.656 248.969 218.438 248.969 213.188V212.781ZM254.781 213.469C254.781 217.219 255.646 220.229 257.375 222.5C259.125 224.771 261.458 225.906 264.375 225.906C267.312 225.906 269.646 224.76 271.375 222.469C273.104 220.156 273.969 216.927 273.969 212.781C273.969 209.073 273.083 206.073 271.312 203.781C269.562 201.469 267.229 200.312 264.312 200.312C261.458 200.312 259.156 201.448 257.406 203.719C255.656 205.99 254.781 209.24 254.781 213.469ZM285.594 212.812C285.594 207.625 286.823 203.458 289.281 200.312C291.74 197.146 294.958 195.562 298.938 195.562C302.896 195.562 306.031 196.917 308.344 199.625V182H314.125V230H308.812L308.531 226.375C306.219 229.208 303 230.625 298.875 230.625C294.958 230.625 291.76 229.021 289.281 225.812C286.823 222.604 285.594 218.417 285.594 213.25V212.812ZM291.375 213.469C291.375 217.302 292.167 220.302 293.75 222.469C295.333 224.635 297.521 225.719 300.312 225.719C303.979 225.719 306.656 224.073 308.344 220.781V205.25C306.615 202.062 303.958 200.469 300.375 200.469C297.542 200.469 295.333 201.562 293.75 203.75C292.167 205.938 291.375 209.177 291.375 213.469ZM337.156 230.625C332.573 230.625 328.844 229.125 325.969 226.125C323.094 223.104 321.656 219.073 321.656 214.031V212.969C321.656 209.615 322.292 206.625 323.562 204C324.854 201.354 326.646 199.292 328.938 197.812C331.25 196.312 333.75 195.562 336.438 195.562C340.833 195.562 344.25 197.01 346.688 199.906C349.125 202.802 350.344 206.948 350.344 212.344V214.75H327.438C327.521 218.083 328.49 220.781 330.344 222.844C332.219 224.885 334.594 225.906 337.469 225.906C339.51 225.906 341.24 225.49 342.656 224.656C344.073 223.823 345.312 222.719 346.375 221.344L349.906 224.094C347.073 228.448 342.823 230.625 337.156 230.625ZM336.438 200.312C334.104 200.312 332.146 201.167 330.562 202.875C328.979 204.562 328 206.938 327.625 210H344.562V209.562C344.396 206.625 343.604 204.354 342.188 202.75C340.771 201.125 338.854 200.312 336.438 200.312ZM374.094 233.906H369.125L388.125 184.5H393.062L374.094 233.906ZM419.781 209.688L399.125 201.594V195.656L425.812 207.469V212.031L399.125 223.875V217.875L419.781 209.688Z" fill="#227DAC"/>
</svg>
